<svg width="72" height="72" viewBox="0 0 72 72" fill="none" xmlns="http://www.w3.org/2000/svg">
<rect width="72" height="72" rx="36" fill="#0A0A0A"/>
<path d="M47.1447 36.6036C48.178 40.3845 49.1771 47.277 53.8634 48.0649C55.1256 48.2771 56.223 48.2706 57.9664 48.0153C57.0105 49.6371 55.2719 50.6974 53.4815 51.18C52.0582 51.5639 50.5597 51.5712 49.1324 51.2015C48.0478 50.8812 47.0384 50.346 46.1637 49.6277C45.2892 48.9093 44.5668 47.9086 44.0403 46.9056C43.2881 45.4101 42.6964 43.8387 42.2755 42.2179C41.5505 39.7766 40.8271 37.3336 40.1054 34.889C39.4232 32.6047 38.914 30.1667 38.034 27.9516C37.6502 26.8377 37.0257 25.8224 36.205 24.9785C35.8444 24.6143 35.4154 24.3252 34.9429 24.1279C34.4703 23.9306 33.9634 23.829 33.4515 23.8289C31.8592 23.845 30.3218 24.4142 29.1013 25.4393C28.0271 26.3066 27.0655 27.3055 26.2391 28.4125C24.9766 30.067 23.8897 31.849 22.9962 33.7295C21.6897 36.2526 20.9937 39.0483 20.9644 41.8908C20.9304 42.9614 21.1347 44.0262 21.5626 45.0077C21.7917 45.6633 22.195 46.2438 22.729 46.6865C23.263 47.1292 23.9075 47.4174 24.5929 47.5201C25.992 47.7335 27.4224 47.4996 28.6811 46.8511C30.2933 46.0175 31.7755 44.9524 33.0807 43.6896C35.1764 41.6576 37.0491 39.4067 38.6668 36.9752L41.0396 44.7153C40.3772 45.3199 39.8038 45.7857 39.1216 46.3754C35.9509 49.1346 32.0289 50.8793 27.8605 51.385C21.5527 52.0592 14.8 48.8778 14.0931 42.0048C13.8458 39.213 14.3799 36.4073 15.6355 33.903C17.294 30.4635 19.6931 27.4357 22.66 25.038C25.1608 22.8935 28.1567 21.4099 31.3753 20.7219C33.1393 20.2889 34.9732 20.2232 36.7636 20.5287C38.0858 20.8002 39.3353 21.3501 40.4295 22.142C41.5238 22.9339 42.4376 23.9497 43.1109 25.1222C43.6498 25.9745 44.0303 26.9656 44.5248 27.9566L48.529 21.6337H56.6195L47.1447 36.6036Z" fill="url(#paint0_radial_5367_2797)"/>
<defs>
<radialGradient id="paint0_radial_5367_2797" cx="0" cy="0" r="1" gradientUnits="userSpaceOnUse" gradientTransform="translate(57.9664 35.9067) rotate(-180) scale(43.9322 54.5453)">
<stop offset="0.25" stop-color="#BFFF36"/>
<stop offset="1" stop-color="white"/>
</radialGradient>
</defs>
</svg>
