<svg width="147" height="104" viewBox="0 0 147 104" fill="none" xmlns="http://www.w3.org/2000/svg">
<path d="M110.396 54.226C113.841 66.8321 117.172 89.8129 132.797 92.44C137.006 93.1476 140.664 93.1259 146.477 92.2747C143.29 97.6819 137.493 101.217 131.524 102.826C126.778 104.106 121.782 104.131 117.023 102.898C113.407 101.83 110.042 100.046 107.125 97.6506C104.21 95.2555 101.801 91.9189 100.045 88.5746C97.5375 83.5884 95.5647 78.3491 94.1612 72.945C91.744 64.8053 89.3321 56.6602 86.9257 48.5094C84.6512 40.8929 82.9534 32.7643 80.0196 25.379C78.7397 21.6649 76.6574 18.2799 73.9212 15.466C72.7189 14.2518 71.2887 13.2879 69.713 12.6301C68.1373 11.9722 66.4474 11.6333 64.7405 11.6331C59.4317 11.6868 54.3057 13.5844 50.2363 17.0026C46.6546 19.8942 43.4485 23.2245 40.6932 26.9156C36.4838 32.4319 32.86 38.3733 29.8807 44.6434C25.5248 53.0557 23.2042 62.3772 23.1066 71.8546C22.993 75.4241 23.6745 78.9743 25.101 82.2468C25.8649 84.4327 27.2096 86.368 28.99 87.8442C30.7705 89.3203 32.9194 90.2811 35.2046 90.6234C39.8692 91.3349 44.6387 90.5551 48.8352 88.3929C54.2107 85.6136 59.1526 82.0625 63.5044 77.852C70.4915 71.0769 76.7354 63.572 82.1293 55.4651L90.0406 81.272C87.8321 83.2877 85.9203 84.8407 83.6458 86.8068C73.074 96.0065 59.9975 101.824 46.0994 103.51C25.0681 105.758 2.55347 95.1504 0.196518 72.2346C-0.628036 62.9262 1.15277 53.5716 5.33895 45.2217C10.8687 33.7538 18.8679 23.6588 28.76 15.6643C37.0979 8.51437 47.0868 3.56758 57.8182 1.27391C63.6997 -0.169764 69.8142 -0.389036 75.7837 0.629586C80.192 1.53495 84.358 3.36843 88.0063 6.00872C91.6551 8.649 94.7018 12.0359 96.9467 15.9452C98.7434 18.7869 100.012 22.0912 101.661 25.3956L115.011 4.3139H141.987L110.396 54.226Z" fill="#BFFF36"/>
</svg>
