<svg width="74" height="52" viewBox="0 0 74 52" fill="none" xmlns="http://www.w3.org/2000/svg">
<path d="M55.0948 27.0623C56.8143 33.3536 58.4766 44.8225 66.2745 46.1336C68.3748 46.4867 70.2007 46.4759 73.1017 46.0511C71.5111 48.7497 68.6182 50.514 65.639 51.317C63.2707 51.9559 60.7773 51.968 58.4022 51.3528C56.5976 50.8197 54.918 49.9293 53.4625 48.734C52.0074 47.5387 50.8053 45.8735 49.9292 44.2045C48.6776 41.716 47.693 39.1013 46.9926 36.4043C45.7862 32.3421 44.5826 28.2771 43.3816 24.2094C42.2465 20.4082 41.3992 16.3515 39.935 12.6658C39.2963 10.8122 38.2571 9.12288 36.8915 7.71855C36.2915 7.11256 35.5777 6.63152 34.7914 6.30324C34.005 5.97491 33.1616 5.80579 32.3097 5.80566C29.6603 5.83247 27.1021 6.77952 25.0712 8.48541C23.2837 9.92852 21.6836 11.5906 20.3085 13.4327C18.2078 16.1856 16.3993 19.1508 14.9124 22.28C12.7385 26.4782 11.5804 31.1303 11.5317 35.8601C11.475 37.6416 11.8151 39.4133 12.527 41.0465C12.9083 42.1374 13.5793 43.1033 14.4679 43.84C15.3565 44.5767 16.4289 45.0562 17.5694 45.227C19.8973 45.5821 22.2776 45.1929 24.372 44.1138C27.0547 42.7268 29.521 40.9546 31.6929 38.8532C35.1799 35.472 38.296 31.7266 40.9879 27.6807L44.9361 40.56C43.8339 41.566 42.8799 42.341 41.7447 43.3223C36.4687 47.9135 29.9426 50.8166 23.0066 51.6581C12.5106 52.7799 1.27435 47.4862 0.0980755 36.0498C-0.313431 31.4043 0.575308 26.7357 2.66449 22.5686C5.4242 16.8454 9.41631 11.8073 14.3531 7.8175C18.5143 4.24923 23.4994 1.78046 28.855 0.635762C31.7903 -0.0847232 34.8419 -0.194155 37.821 0.314205C40.021 0.76604 42.1002 1.68107 43.9209 2.99874C45.7419 4.31642 47.2624 6.0067 48.3827 7.9577C49.2794 9.37588 49.9126 11.025 50.7354 12.674L57.3982 2.15292H70.8606L55.0948 27.0623Z" fill="#0A0A0A"/>
</svg>
